<?xml version="1.0" encoding="iso-8859-1"?>
<!-- Uploaded to: SVG Repo, www.svgrepo.com, Generator: SVG Repo Mixer Tools -->
<!DOCTYPE svg PUBLIC "-//W3C//DTD SVG 1.1//EN" "http://www.w3.org/Graphics/SVG/1.1/DTD/svg11.dtd">
<svg fill="#000000" height="800px" width="800px" version="1.1" id="Capa_1" xmlns="http://www.w3.org/2000/svg" xmlns:xlink="http://www.w3.org/1999/xlink" 
	 viewBox="0 0 104.088 104.088" xml:space="preserve">
<g>
	<path d="M72.16,17.685l-1.259-0.417c-1.484-0.491-3.308,0.287-3.986,1.683l-6.303,12.984c-0.337,0.695-1.34,1.435-2.103,1.553
		l-6.171,0.952l-12.412,0.943c-0.06,0.005-0.119,0.022-0.179,0.03c-0.886,0.052-1.769,0.336-2.389,0.838L13.153,55.894
		c-0.654,0.531-1.012,1.274-0.981,2.04c0.031,0.764,0.447,1.477,1.142,1.953l2.492,1.711c0.568,0.39,1.298,0.605,2.054,0.605
		c0.886,0,1.718-0.282,2.341-0.793l13.26-10.876l-4.016,15.991c-0.061,0.115-0.119,0.234-0.169,0.361l-5.047,12.693
		c-0.426,1.072-1.743,2.377-2.817,2.795L7.136,87.917c-0.945,0.367-1.606,1.071-1.815,1.933c-0.209,0.862,0.057,1.792,0.728,2.55
		l1.261,1.425c0.87,0.983,2.314,1.594,3.769,1.594c0.532,0,1.033-0.083,1.489-0.247l15.068-5.408
		c1.601-0.575,3.387-2.244,4.067-3.801l5.175-11.832l2.807-0.342l0.726,5.71c0.155,1.223-0.162,3.276-0.678,4.394l-7.363,15.938
		c-0.423,0.916-0.413,1.885,0.028,2.66c0.441,0.774,1.269,1.278,2.272,1.381l1.891,0.195c0.134,0.014,0.27,0.021,0.406,0.021
		c1.753,0,3.581-1.103,4.344-2.622l7.228-14.373c0.713-1.417,1.287-3.771,1.307-5.359l0.148-11.993l5.508-28.366l8.273-1.161
		c1.452-0.204,2.969-1.379,3.529-2.735l6.601-15.985c0.31-0.751,0.298-1.564-0.034-2.289S72.932,17.94,72.16,17.685z"/>
	<path d="M47.185,31.434c1.208,0,2.398-0.215,3.539-0.639c2.546-0.945,4.572-2.826,5.704-5.296c1.131-2.469,1.234-5.231,0.288-7.778
		c-1.473-3.966-5.305-6.63-9.535-6.63c-1.207,0-2.397,0.215-3.539,0.639c-5.256,1.953-7.944,7.818-5.992,13.074
		C39.124,28.769,42.956,31.434,47.185,31.434z"/>
	<path d="M98.149,16.103c-0.519-0.584-1.281-0.919-2.091-0.919H80.043c-0.81,0-1.571,0.335-2.091,0.919s-0.763,1.38-0.668,2.184
		l1.641,13.939c0.189,1.609,1.606,2.87,3.227,2.87h11.798c1.621,0,3.038-1.26,3.227-2.87l1.641-13.939
		C98.912,17.483,98.668,16.687,98.149,16.103z"/>
	<path d="M81.74,7.362C81.74,3.303,78.438,0,74.379,0c-4.059,0-7.362,3.303-7.362,7.362c0,4.059,3.303,7.361,7.362,7.361
		C78.438,14.724,81.74,11.421,81.74,7.362z"/>
</g>
</svg>